<?xml version="1.0" encoding="utf-8"?>
<!-- Generator: Adobe Illustrator 22.0.1, SVG Export Plug-In . SVG Version: 6.00 Build 0)  -->
<svg version="1.1" id="Yamaha_Logomark" xmlns="http://www.w3.org/2000/svg" xmlns:xlink="http://www.w3.org/1999/xlink" x="0px"
	 y="0px" viewBox="0 0 375 144" style="enable-background:new 0 0 375 144;" xml:space="preserve">
<style type="text/css">
	.st0{fill:#EE2E24;}
	.st1{fill:url(#SVGID_2_);}
	.st2{filter:url(#Adobe_OpacityMaskFilter);}
	.st3{mask:url(#SVGID_1_);}
	.st4{filter:url(#Adobe_OpacityMaskFilter_1_);}
	.st5{mask:url(#SVGID_4_);}
	.st6{fill:url(#SVGID_3_);}
	.st7{fill:url(#SVGID_6_);}
	.st8{opacity:0.4;}
	.st9{fill:#FFFFFF;}
	.st10{filter:url(#Adobe_OpacityMaskFilter_2_);}
	.st11{opacity:0.81;mask:url(#SVGID_5_);}
	.st12{fill:#303234;}
	.st13{opacity:0.35;}
	.st14{filter:url(#Adobe_OpacityMaskFilter_3_);}
	.st15{opacity:0.6;mask:url(#SVGID_8_);}
	.st16{fill:#47474B;}
	.st17{fill:url(#SVGID_7_);}
	.st18{fill:url(#SVGID_9_);}
	.st19{fill:#EBEBEB;}
	.st20{fill:url(#SVGID_10_);}
	.st21{fill:#1A1A1A;}
	.st22{fill:url(#SVGID_11_);}
	.st23{fill:#808080;}
	.st24{fill:#F2F2F2;}
	.st25{fill:url(#SVGID_12_);}
	.st26{fill:url(#SVGID_13_);}
	.st27{fill:#4D4D4D;}
	.st28{fill:#B2B2B2;}
	.st29{fill:url(#SVGID_14_);}
	.st30{fill:url(#SVGID_15_);}
	.st31{fill:url(#SVGID_16_);}
	.st32{fill:#666666;}
	.st33{fill:url(#SVGID_17_);}
	.st34{fill:url(#SVGID_18_);}
	.st35{fill:url(#SVGID_19_);}
	.st36{fill:#CCCCCC;}
	.st37{fill:url(#SVGID_20_);}
	.st38{fill:url(#SVGID_21_);}
	.st39{fill:url(#SVGID_22_);}
	.st40{fill:url(#SVGID_23_);}
	.st41{fill:url(#SVGID_24_);}
	.st42{fill:url(#SVGID_25_);}
	.st43{fill:url(#SVGID_26_);}
	.st44{fill:url(#SVGID_27_);}
	.st45{fill:url(#SVGID_28_);}
	.st46{fill:url(#SVGID_29_);}
	.st47{fill:url(#SVGID_30_);}
	.st48{fill:url(#SVGID_31_);}
	.st49{fill:url(#SVGID_32_);}
	.st50{fill:none;}
	.st51{fill:#292627;}
</style>
<g>
	<g>
		<g>
			<polygon class="st0" points="285.2,6.3 285.2,73.4 298.9,73.4 298.9,45.3 310.8,45.3 310.8,73.4 324.5,73.4 324.5,6.3 310.9,6.3 
				310.9,33.1 298.9,33.1 298.9,6.3 			"/>
			<polygon class="st0" points="179.3,6.3 179.3,73.4 191.8,73.4 191.8,30.8 199.2,73.4 207.6,73.4 215.1,30.8 215.1,73.4 
				227.7,73.4 227.7,6.3 209,6.3 203.5,38.6 198,6.3 			"/>
			<polygon class="st0" points="100.3,6.3 108.6,36.3 117,6.3 130.7,6.3 115.9,51.4 115.9,73.4 101.4,73.4 101.4,51.4 86.6,6.3 			
				"/>
			<path class="st0" d="M159.7,6.3h-18.2l-11.9,67.1h13.6l2.3-16h10.3l2.3,16h13.7L159.7,6.3z M150.6,21.5l3.4,23.8h-6.8L150.6,21.5
				z"/>
			<path class="st0" d="M265.5,6.3h-18.2l-11.9,67.1H249l2.3-16h10.3l2.3,16h13.7L265.5,6.3z M256.4,21.5l3.4,23.8H253L256.4,21.5z"
				/>
			<path class="st0" d="M362.4,6.3h-18.2l-11.9,67.1h13.6l2.3-16h10.3l2.3,16h13.7L362.4,6.3z M353.3,21.5l3.4,23.8h-6.8L353.3,21.5
				z"/>
		</g>
	</g>
	<g>
		
			<radialGradient id="SVGID_2_" cx="21797.5508" cy="19486.082" r="101.4777" fx="21793.459" fy="19491.9258" gradientTransform="matrix(0.45 0 0 0.4496 -9781.3203 -8742.833)" gradientUnits="userSpaceOnUse">
			<stop  offset="0" style="stop-color:#F48385"/>
			<stop  offset="9.819999e-02" style="stop-color:#F48182"/>
			<stop  offset="0.2127" style="stop-color:#F37B78"/>
			<stop  offset="0.3353" style="stop-color:#F3716A"/>
			<stop  offset="0.4635" style="stop-color:#F16156"/>
			<stop  offset="0.5948" style="stop-color:#F04B3C"/>
			<stop  offset="0.7191" style="stop-color:#EE2E24"/>
			<stop  offset="1" style="stop-color:#EE2E24"/>
		</radialGradient>
		<path class="st1" d="M0.6,39.8c0-21.9,17.8-39.7,39.7-39.7C62.2,0.1,80,17.9,80,39.8c0,21.9-17.8,39.7-39.7,39.7
			C18.4,79.5,0.6,61.7,0.6,39.8z"/>
		<g>
			<defs>
				<filter id="Adobe_OpacityMaskFilter" filterUnits="userSpaceOnUse" x="2.1" y="2.9" width="76.5" height="76.5">
					<feColorMatrix  type="matrix" values="1 0 0 0 0  0 1 0 0 0  0 0 1 0 0  0 0 0 1 0"/>
				</filter>
			</defs>
			<mask maskUnits="userSpaceOnUse" x="2.1" y="2.9" width="76.5" height="76.5" id="SVGID_1_">
				<g class="st2">
				</g>
			</mask>
			<g class="st3">
				<path d="M40.3,2.9c21.1,0,38.3,17.1,38.3,38.3l0,0c0,21.1-17.1,38.3-38.3,38.3l0,0c-21.1,0-38.3-17.1-38.3-38.3l0,0
					C2.1,20,19.2,2.9,40.3,2.9z M14.2,58.9c5.7,8.3,15.3,13.8,26.1,13.8l0,0c10.8,0,20.4-5.5,26.1-13.8l0,0l0.1-0.1l5.4,1.2
					c0,0,0,0,0.1,0l0,0c0.2,0,0.4-0.1,0.5-0.3l0,0c0.1-0.1,0.1-0.2,0.1-0.3l0,0c0-0.1,0-0.3-0.1-0.4l0,0L68.7,55l0-0.1
					c2-4.1,3.1-8.8,3.1-13.7l0,0c0-16.6-12.9-30.3-29.2-31.5l0,0l-0.1,0l-1.7-5.3C40.8,4.1,40.6,4,40.3,4l0,0
					c-0.3,0-0.5,0.2-0.6,0.4l0,0l-1.7,5.3l-0.1,0C21.6,10.9,8.7,24.5,8.7,41.1l0,0c0,4.9,1.1,9.6,3.1,13.7l0,0l0.1,0.1L8.2,59
					c-0.1,0.1-0.1,0.2-0.1,0.4l0,0c0,0.1,0,0.2,0.1,0.3l0,0C8.3,59.9,8.5,60,8.7,60l0,0c0,0,0.1,0,0.1,0l0,0L14.2,58.9L14.2,58.9
					L14.2,58.9z"/>
			</g>
		</g>
		<g>
			<defs>
				<filter id="Adobe_OpacityMaskFilter_1_" filterUnits="userSpaceOnUse" x="8.5" y="4.5" width="63.6" height="63.8">
					<feColorMatrix  type="matrix" values="1 0 0 0 0  0 1 0 0 0  0 0 1 0 0  0 0 0 1 0"/>
				</filter>
			</defs>
			<mask maskUnits="userSpaceOnUse" x="8.5" y="4.5" width="63.6" height="63.8" id="SVGID_4_">
				<g class="st4">
				</g>
			</mask>
			<g class="st5">
				<path d="M42.9,68.3V49.7l-2.6-1.5l-2.6,1.5v18.6h-3.5V51.8l-3,1.7c-1,0.6-2,0.8-3.1,0.8l0,0c-0.8,0-1.6-0.2-2.4-0.5l0,0l0,0
					c-0.5-0.2-1-0.3-1.5-0.3l0,0c-0.6,0-1.3,0.2-1.9,0.5l0,0c-1.1,0.6-1.7,1.7-1.9,2.9l0,0l0,0.1L9,59.7c0,0,0,0-0.1,0l0,0
					c-0.1,0-0.3-0.1-0.3-0.2l0,0c0-0.1-0.1-0.1-0.1-0.2l0,0c0-0.1,0-0.2,0.1-0.2l0,0l8.1-8.6l0.1,0c0.5,0.2,1,0.3,1.5,0.3l0,0
					c0.6,0,1.3-0.2,1.9-0.5l0,0c1.1-0.6,1.7-1.7,1.9-2.8l0,0l0,0c0.2-1.8,1.3-3.6,3-4.6l0,0l3-1.7l-14.3-8.3l1.8-3l16.1,9.3l2.6-1.5
					v-3l-16.1-9.3l1.8-3l14.3,8.3v-3.4c0-2,1-3.8,2.4-4.9l0,0l0,0c0.9-0.7,1.5-1.8,1.5-3l0,0c0-1.2-0.6-2.4-1.5-3.1l0,0L36.5,16
					L40,4.7c0-0.2,0.2-0.3,0.4-0.3l0,0c0.2,0,0.3,0.1,0.4,0.3l0,0L44.1,16L44,16.1c-0.9,0.7-1.5,1.8-1.5,3.1l0,0
					c0,1.2,0.6,2.4,1.5,3l0,0l0,0c1.5,1.1,2.4,2.9,2.4,4.9l0,0v3.4l14.3-8.3l1.8,3l-16.1,9.3v3l2.6,1.5l16.1-9.3l1.8,3l-14.3,8.3
					l3,1.7c1.7,1,2.8,2.7,3,4.6l0,0l0,0c0.1,1.1,0.8,2.2,1.9,2.8l0,0c0.6,0.3,1.3,0.5,1.9,0.5l0,0c0.5,0,1-0.1,1.5-0.3l0,0l0.1,0
					L72,59v0c0.1,0.1,0.1,0.2,0.1,0.3l0,0c0,0.1,0,0.1,0,0.2l0,0c-0.1,0.1-0.2,0.2-0.3,0.2l0,0c0,0-0.1,0-0.1,0l0,0L60.2,57l0-0.1
					c-0.1-1.1-0.8-2.2-1.9-2.9l0,0c-0.6-0.3-1.3-0.5-1.9-0.5l0,0c-0.5,0-1,0.1-1.5,0.3l0,0l0,0c-0.8,0.3-1.6,0.5-2.4,0.5l0,0
					c-1,0-2.1-0.3-3.1-0.8l0,0l-3-1.7v16.5L42.9,68.3L42.9,68.3z M46.4,44.7v3l4.7,2.7c0.4,0.2,0.9,0.4,1.3,0.4l0,0
					c0.9,0,1.8-0.5,2.3-1.3l0,0l0,0c0.2-0.4,0.4-0.9,0.4-1.3l0,0c0-0.9-0.5-1.8-1.3-2.3l0,0l-4.7-2.7L46.4,44.7L46.4,44.7z
					 M26.9,45.9c-0.8,0.5-1.3,1.4-1.3,2.3l0,0c0,0.4,0.1,0.9,0.4,1.3l0,0c0.5,0.8,1.4,1.3,2.3,1.3l0,0c0.4,0,0.9-0.1,1.3-0.4l0,0
					l4.7-2.7v-3l-2.6-1.5L26.9,45.9L26.9,45.9z M40.3,44.4l0.1-0.1L40.3,44.4L40.3,44.4z M37.7,39.6v3l2.6,1.5l2.6-1.5v-3l-2.6-1.5
					L37.7,39.6L37.7,39.6z M37.7,32.6l2.6,1.5l2.6-1.5v-5.5c0-1.4-1.2-2.6-2.6-2.6l0,0c-1.4,0-2.6,1.2-2.6,2.6l0,0V32.6L37.7,32.6z"
					/>
			</g>
		</g>
		<g>
			<path d="M40.3,2.4c-21,0-38.1,17.1-38.1,38.1s17.1,38.1,38.1,38.1c21,0,38.1-17.1,38.1-38.1C78.4,19.5,61.4,2.4,40.3,2.4z
				 M71.9,59.6l-5.3-1.2c-5.7,8.4-15.3,13.9-26.2,13.9c-10.9,0-20.5-5.5-26.2-13.9l-5.3,1.2c-0.3,0-0.6-0.1-0.8-0.4
				c-0.2-0.3-0.1-0.6,0-0.9l3.7-4c-2-4.2-3.1-8.8-3.1-13.8c0-16.7,13-30.4,29.4-31.7l1.6-5.2c0.1-0.3,0.4-0.5,0.7-0.5
				c0.3,0,0.6,0.2,0.7,0.5l1.6,5.2c16.4,1.2,29.4,14.9,29.4,31.7c0,4.9-1.1,9.6-3.1,13.8l3.7,4c0.2,0.2,0.2,0.6,0.1,0.9
				S72.2,59.6,71.9,59.6z"/>
			<path d="M71.9,58.6l-8-8.5c-1.1,0.5-2.4,0.4-3.6-0.2c-1.1-0.6-1.8-1.8-2-3l0,0c-0.2-1.8-1.2-3.5-2.9-4.5l-3.2-1.9l14.4-8.3
				l-1.6-2.8l-16,9.2l-2.8-1.6v-3.2l16-9.2l-1.6-2.8l-14.4,8.3v-3.7c0-2-0.9-3.7-2.4-4.8l0,0c-1-0.7-1.6-1.9-1.6-3.2
				c0-1.3,0.6-2.5,1.6-3.2L40.5,4.2c0-0.1-0.1-0.1-0.2-0.1s-0.2,0.1-0.2,0.1l-3.4,11.2c1,0.7,1.6,1.9,1.6,3.2c0,1.3-0.6,2.5-1.6,3.2
				l0,0c-1.5,1.1-2.4,2.8-2.4,4.8v3.7L20,21.9l-1.6,2.8l16,9.2v3.2l-2.8,1.6l-16-9.2L14,32.2l14.4,8.3l-3.2,1.9
				c-1.7,1-2.7,2.7-2.9,4.5l0,0c-0.1,1.2-0.8,2.3-2,3c-1.1,0.6-2.4,0.7-3.6,0.2l-8,8.5c-0.1,0.1-0.1,0.2,0,0.2
				c0,0.1,0.1,0.1,0.2,0.1l11.4-2.6c0.1-1.2,0.8-2.3,2-3c1.1-0.6,2.4-0.7,3.5-0.2l0,0c1.7,0.7,3.6,0.7,5.3-0.3l3.2-1.9v16.6h3.2V49
				l2.8-1.6l2.8,1.6v18.5h3.2V50.9l3.2,1.9c1.7,1,3.7,1,5.3,0.3l0,0c1.1-0.5,2.4-0.4,3.5,0.2c1.1,0.7,1.8,1.8,2,3l11.4,2.6
				c0.1,0,0.2,0,0.2-0.1C72,58.7,72,58.6,71.9,58.6z M40.3,43.7l-2.8-1.6v-3.2l2.8-1.6l2.8,1.6v3.2L40.3,43.7z M37.5,26.5
				c0-1.5,1.2-2.8,2.8-2.8s2.8,1.2,2.8,2.8v5.6l-2.8,1.6l-2.8-1.6L37.5,26.5L37.5,26.5z M29.5,50c-1.3,0.8-3,0.3-3.8-1
				c-0.8-1.3-0.3-3,1-3.8l4.8-2.8l2.8,1.6v3.2L29.5,50z M54.9,49c-0.8,1.3-2.5,1.8-3.8,1l-4.8-2.8V44l2.8-1.6l4.8,2.8
				C55.2,45.9,55.7,47.6,54.9,49z"/>
		</g>
		
			<radialGradient id="SVGID_3_" cx="-751.2746" cy="-348.4121" r="473.0195" gradientTransform="matrix(0.28 0 0 0.28 187.4627 74.1137)" gradientUnits="userSpaceOnUse">
			<stop  offset="0.2089" style="stop-color:#9DA5BD"/>
			<stop  offset="0.2918" style="stop-color:#B8BED1"/>
			<stop  offset="0.4518" style="stop-color:#F4F4FA"/>
			<stop  offset="0.531" style="stop-color:#F4F4FA"/>
			<stop  offset="0.544" style="stop-color:#F4F4FA"/>
			<stop  offset="0.6374" style="stop-color:#A9B3C9"/>
			<stop  offset="0.7418" style="stop-color:#343B53"/>
			<stop  offset="0.7603" style="stop-color:#394159"/>
			<stop  offset="0.7878" style="stop-color:#485069"/>
			<stop  offset="0.8208" style="stop-color:#606982"/>
			<stop  offset="0.8579" style="stop-color:#8790A6"/>
			<stop  offset="0.895" style="stop-color:#BCC4D5"/>
			<stop  offset="0.9251" style="stop-color:#DBDFE9"/>
			<stop  offset="0.9505" style="stop-color:#F4F4FA"/>
		</radialGradient>
		<path class="st6" d="M40.3,1.7c-21,0-38.1,17.1-38.1,38.1s17.1,38.1,38.1,38.1c21,0,38.1-17.1,38.1-38.1
			C78.4,18.7,61.4,1.7,40.3,1.7z M71.9,58.8l-5.3-1.2C60.8,66,51.2,71.5,40.3,71.5c-10.9,0-20.5-5.5-26.2-13.9l-5.3,1.2
			c-0.3,0-0.6-0.1-0.8-0.4c-0.2-0.3-0.1-0.6,0-0.9l3.7-4c-2-4.2-3.1-8.8-3.1-13.8C8.6,23,21.5,9.3,38,8.1l1.6-5.2
			c0.1-0.3,0.4-0.5,0.7-0.5c0.3,0,0.6,0.2,0.7,0.5l1.6,5.2C59.1,9.3,72.1,23,72.1,39.8c0,4.9-1.1,9.6-3.1,13.8l3.7,4
			c0.2,0.2,0.2,0.6,0.1,0.9C72.5,58.7,72.2,58.9,71.9,58.8z"/>
		
			<radialGradient id="SVGID_6_" cx="-689.9314" cy="-287.0717" r="363.6455" gradientTransform="matrix(0.28 0 0 0.28 187.4627 74.1137)" gradientUnits="userSpaceOnUse">
			<stop  offset="0.2089" style="stop-color:#9AA2B8"/>
			<stop  offset="0.3109" style="stop-color:#BDC2D3"/>
			<stop  offset="0.456" style="stop-color:#F4F4FA"/>
			<stop  offset="0.541" style="stop-color:#F4F4FA"/>
			<stop  offset="0.5549" style="stop-color:#F4F4FA"/>
			<stop  offset="0.6264" style="stop-color:#A2ACC2"/>
			<stop  offset="0.7429" style="stop-color:#48536F"/>
			<stop  offset="0.763" style="stop-color:#4E5874"/>
			<stop  offset="0.7929" style="stop-color:#5F6984"/>
			<stop  offset="0.8287" style="stop-color:#7E86A0"/>
			<stop  offset="0.8689" style="stop-color:#B1B5C8"/>
			<stop  offset="0.8846" style="stop-color:#CACCDB"/>
			<stop  offset="0.9111" style="stop-color:#DDDEE9"/>
			<stop  offset="0.9446" style="stop-color:#F4F4FA"/>
		</radialGradient>
		<path class="st7" d="M71.9,57.8l-8-8.5c-1.1,0.5-2.4,0.4-3.6-0.2c-1.1-0.6-1.8-1.8-2-3l0,0c-0.2-1.8-1.2-3.5-2.9-4.5l-3.2-1.9
			l14.4-8.3l-1.6-2.8l-16,9.2l-2.8-1.6v-3.2l16-9.2l-1.6-2.8l-14.4,8.3v-3.7c0-2-0.9-3.7-2.4-4.8l0,0c-1-0.7-1.6-1.9-1.6-3.2
			c0-1.3,0.6-2.5,1.6-3.2L40.5,3.4c0-0.1-0.1-0.1-0.2-0.1s-0.2,0.1-0.2,0.1l-3.4,11.2c1,0.7,1.6,1.9,1.6,3.2c0,1.3-0.6,2.5-1.6,3.2
			l0,0c-1.5,1.1-2.4,2.8-2.4,4.8v3.7L20,21.1l-1.6,2.8l16,9.2v3.2l-2.8,1.6l-16-9.2L14,31.5l14.4,8.3l-3.2,1.9
			c-1.7,1-2.7,2.7-2.9,4.5l0,0c-0.1,1.2-0.8,2.3-2,3c-1.1,0.6-2.4,0.7-3.6,0.2l-8,8.5c-0.1,0.1-0.1,0.2,0,0.2c0,0.1,0.1,0.1,0.2,0.1
			l11.4-2.6c0.1-1.2,0.8-2.3,2-3c1.1-0.6,2.4-0.7,3.5-0.2l0,0c1.7,0.7,3.6,0.7,5.3-0.3l3.2-1.9v16.6h3.2V48.3l2.8-1.6l2.8,1.6v18.5
			h3.2V50.1l3.2,1.9c1.7,1,3.7,1,5.3,0.3l0,0c1.1-0.5,2.4-0.4,3.5,0.2c1.1,0.7,1.8,1.8,2,3l11.4,2.6c0.1,0,0.2,0,0.2-0.1
			C72,57.9,72,57.9,71.9,57.8z M40.3,43l-2.8-1.6v-3.2l2.8-1.6l2.8,1.6v3.2L40.3,43z M37.5,25.7c0-1.5,1.2-2.8,2.8-2.8
			s2.8,1.2,2.8,2.8v5.6l-2.8,1.6l-2.8-1.6L37.5,25.7L37.5,25.7z M29.5,49.2c-1.3,0.8-3,0.3-3.8-1c-0.8-1.3-0.3-3,1-3.8l4.8-2.8
			l2.8,1.6v3.2L29.5,49.2z M54.9,48.2c-0.8,1.3-2.5,1.8-3.8,1l-4.8-2.8v-3.2l2.8-1.6l4.8,2.8C55.2,45.2,55.7,46.9,54.9,48.2z"/>
		<g class="st8">
			<g>
				<path class="st9" d="M40.3,1.7c-21,0-38.1,17.1-38.1,38.1s17.1,38.1,38.1,38.1c21,0,38.1-17.1,38.1-38.1
					C78.4,18.7,61.4,1.7,40.3,1.7z M71.9,58.8l-5.3-1.2C60.8,66,51.2,71.5,40.3,71.5c-10.9,0-20.5-5.5-26.2-13.9l-5.3,1.2
					c-0.3,0-0.6-0.1-0.8-0.4c-0.2-0.3-0.1-0.6,0-0.9l3.7-4c-2-4.2-3.1-8.8-3.1-13.8C8.6,23,21.5,9.3,38,8.1l1.6-5.2
					c0.1-0.3,0.4-0.5,0.7-0.5c0.3,0,0.6,0.2,0.7,0.5l1.6,5.2C59.1,9.3,72.1,23,72.1,39.8c0,4.9-1.1,9.6-3.1,13.8l3.7,4
					c0.2,0.2,0.2,0.6,0.1,0.9C72.5,58.7,72.2,58.9,71.9,58.8z"/>
			</g>
			<defs>
				<filter id="Adobe_OpacityMaskFilter_2_" filterUnits="userSpaceOnUse" x="2.2" y="1.7" width="76.2" height="76.2">
					<feColorMatrix  type="matrix" values="1 0 0 0 0  0 1 0 0 0  0 0 1 0 0  0 0 0 1 0"/>
				</filter>
			</defs>
			<mask maskUnits="userSpaceOnUse" x="2.2" y="1.7" width="76.2" height="76.2" id="SVGID_5_">
				<g class="st10">
				</g>
			</mask>
			<g class="st11">
				<path class="st12" d="M40.3,1.7c-21,0-38.1,17.1-38.1,38.1s17.1,38.1,38.1,38.1c21,0,38.1-17.1,38.1-38.1
					C78.4,18.7,61.4,1.7,40.3,1.7z M71.9,58.8l-5.3-1.2C60.8,66,51.2,71.5,40.3,71.5c-10.9,0-20.5-5.5-26.2-13.9l-5.3,1.2
					c-0.3,0-0.6-0.1-0.8-0.4c-0.2-0.3-0.1-0.6,0-0.9l3.7-4c-2-4.2-3.1-8.8-3.1-13.8C8.6,23,21.5,9.3,38,8.1l1.6-5.2
					c0.1-0.3,0.4-0.5,0.7-0.5c0.3,0,0.6,0.2,0.7,0.5l1.6,5.2C59.1,9.3,72.1,23,72.1,39.8c0,4.9-1.1,9.6-3.1,13.8l3.7,4
					c0.2,0.2,0.2,0.6,0.1,0.9C72.5,58.7,72.2,58.9,71.9,58.8z"/>
			</g>
		</g>
		<g class="st13">
			<g>
				<path class="st9" d="M71.9,57.8l-8-8.5c-1.1,0.5-2.4,0.4-3.6-0.2c-1.1-0.6-1.8-1.8-2-3l0,0c-0.2-1.8-1.2-3.5-2.9-4.5l-3.2-1.9
					l14.4-8.3l-1.6-2.8l-16,9.2l-2.8-1.6v-3.2l16-9.2l-1.6-2.8l-14.4,8.3v-3.7c0-2-0.9-3.7-2.4-4.8l0,0c-1-0.7-1.6-1.9-1.6-3.2
					c0-1.3,0.6-2.5,1.6-3.2L40.5,3.4c0-0.1-0.1-0.1-0.2-0.1s-0.2,0.1-0.2,0.1l-3.4,11.2c1,0.7,1.6,1.9,1.6,3.2
					c0,1.3-0.6,2.5-1.6,3.2l0,0c-1.5,1.1-2.4,2.8-2.4,4.8v3.7L20,21.1l-1.6,2.8l16,9.2v3.2l-2.8,1.6l-16-9.2L14,31.5l14.4,8.3
					l-3.2,1.9c-1.7,1-2.7,2.7-2.9,4.5l0,0c-0.1,1.2-0.8,2.3-2,3c-1.1,0.6-2.4,0.7-3.6,0.2l-8,8.5c-0.1,0.1-0.1,0.2,0,0.2
					c0,0.1,0.1,0.1,0.2,0.1l11.4-2.6c0.1-1.2,0.8-2.3,2-3c1.1-0.6,2.4-0.7,3.5-0.2l0,0c1.7,0.7,3.6,0.7,5.3-0.3l3.2-1.9v16.6h3.2
					V48.3l2.8-1.6l2.8,1.6v18.5h3.2V50.1l3.2,1.9c1.7,1,3.7,1,5.3,0.3l0,0c1.1-0.5,2.4-0.4,3.5,0.2c1.1,0.7,1.8,1.8,2,3l11.4,2.6
					c0.1,0,0.2,0,0.2-0.1C72,57.9,72,57.9,71.9,57.8z M40.3,43l-2.8-1.6v-3.2l2.8-1.6l2.8,1.6v3.2L40.3,43z M37.5,25.7
					c0-1.5,1.2-2.8,2.8-2.8s2.8,1.2,2.8,2.8v5.6l-2.8,1.6l-2.8-1.6L37.5,25.7L37.5,25.7z M29.5,49.2c-1.3,0.8-3,0.3-3.8-1
					c-0.8-1.3-0.3-3,1-3.8l4.8-2.8l2.8,1.6v3.2L29.5,49.2z M54.9,48.2c-0.8,1.3-2.5,1.8-3.8,1l-4.8-2.8v-3.2l2.8-1.6l4.8,2.8
					C55.2,45.2,55.7,46.9,54.9,48.2z"/>
			</g>
			<defs>
				<filter id="Adobe_OpacityMaskFilter_3_" filterUnits="userSpaceOnUse" x="8.7" y="3.3" width="63.3" height="63.5">
					<feColorMatrix  type="matrix" values="1 0 0 0 0  0 1 0 0 0  0 0 1 0 0  0 0 0 1 0"/>
				</filter>
			</defs>
			<mask maskUnits="userSpaceOnUse" x="8.7" y="3.3" width="63.3" height="63.5" id="SVGID_8_">
				<g class="st14">
				</g>
			</mask>
			<g class="st15">
				<path class="st16" d="M71.9,57.8l-8-8.5c-1.1,0.5-2.4,0.4-3.6-0.2c-1.1-0.6-1.8-1.8-2-3l0,0c-0.2-1.8-1.2-3.5-2.9-4.5l-3.2-1.9
					l14.4-8.3l-1.6-2.8l-16,9.2l-2.8-1.6v-3.2l16-9.2l-1.6-2.8l-14.4,8.3v-3.7c0-2-0.9-3.7-2.4-4.8l0,0c-1-0.7-1.6-1.9-1.6-3.2
					c0-1.3,0.6-2.5,1.6-3.2L40.5,3.4c0-0.1-0.1-0.1-0.2-0.1s-0.2,0.1-0.2,0.1l-3.4,11.2c1,0.7,1.6,1.9,1.6,3.2
					c0,1.3-0.6,2.5-1.6,3.2l0,0c-1.5,1.1-2.4,2.8-2.4,4.8v3.7L20,21.1l-1.6,2.8l16,9.2v3.2l-2.8,1.6l-16-9.2L14,31.5l14.4,8.3
					l-3.2,1.9c-1.7,1-2.7,2.7-2.9,4.5l0,0c-0.1,1.2-0.8,2.3-2,3c-1.1,0.6-2.4,0.7-3.6,0.2l-8,8.5c-0.1,0.1-0.1,0.2,0,0.2
					c0,0.1,0.1,0.1,0.2,0.1l11.4-2.6c0.1-1.2,0.8-2.3,2-3c1.1-0.6,2.4-0.7,3.5-0.2l0,0c1.7,0.7,3.6,0.7,5.3-0.3l3.2-1.9v16.6h3.2
					V48.3l2.8-1.6l2.8,1.6v18.5h3.2V50.1l3.2,1.9c1.7,1,3.7,1,5.3,0.3l0,0c1.1-0.5,2.4-0.4,3.5,0.2c1.1,0.7,1.8,1.8,2,3l11.4,2.6
					c0.1,0,0.2,0,0.2-0.1C72,57.9,72,57.9,71.9,57.8z M40.3,43l-2.8-1.6v-3.2l2.8-1.6l2.8,1.6v3.2L40.3,43z M37.5,25.7
					c0-1.5,1.2-2.8,2.8-2.8s2.8,1.2,2.8,2.8v5.6l-2.8,1.6l-2.8-1.6L37.5,25.7L37.5,25.7z M29.5,49.2c-1.3,0.8-3,0.3-3.8-1
					c-0.8-1.3-0.3-3,1-3.8l4.8-2.8l2.8,1.6v3.2L29.5,49.2z M54.9,48.2c-0.8,1.3-2.5,1.8-3.8,1l-4.8-2.8v-3.2l2.8-1.6l4.8,2.8
					C55.2,45.2,55.7,46.9,54.9,48.2z"/>
			</g>
		</g>
		<g>
			
				<linearGradient id="SVGID_7_" gradientUnits="userSpaceOnUse" x1="63.4" y1="-213.4854" x2="63.4" y2="-213.4854" gradientTransform="matrix(1 0 0 1 8.5 271.2754)">
				<stop  offset="0" style="stop-color:#FFFFFF"/>
				<stop  offset="1" style="stop-color:#231A16"/>
			</linearGradient>
			<path class="st17" d="M71.9,57.8L71.9,57.8L71.9,57.8z"/>
			<g>
				
					<linearGradient id="SVGID_9_" gradientUnits="userSpaceOnUse" x1="5.0197" y1="-258.3039" x2="58.6279" y2="-204.6961" gradientTransform="matrix(1 0 0 1 8.5 271.2754)">
					<stop  offset="0" style="stop-color:#EDEDED"/>
					<stop  offset="0.6374" style="stop-color:#666666"/>
					<stop  offset="1" style="stop-color:#E6E6E6"/>
				</linearGradient>
				<path class="st18" d="M40.3,1.7c-21,0-38.1,17.1-38.1,38.1s17.1,38.1,38.1,38.1c21,0,38.1-17.1,38.1-38.1
					C78.4,18.7,61.4,1.7,40.3,1.7z M67.1,66.6c-6.9,6.9-16.3,11.1-26.8,11.1c-10.5,0-19.9-4.2-26.8-11.1C6.7,59.7,2.4,50.2,2.4,39.8
					c0-10.5,4.2-19.9,11.1-26.8S29.9,1.9,40.3,1.9c10.5,0,19.9,4.2,26.8,11.1c6.9,6.9,11.1,16.3,11.1,26.8
					C78.2,50.2,74,59.7,67.1,66.6z"/>
			</g>
			<polygon class="st19" points="40.3,33.1 40.3,32.9 37.5,31.3 37.4,31.4 			"/>
			
				<linearGradient id="SVGID_10_" gradientUnits="userSpaceOnUse" x1="34.7591" y1="-244.1919" x2="28.8337" y2="-244.1919" gradientTransform="matrix(1 0 0 1 8.5 271.2754)">
				<stop  offset="0" style="stop-color:#FFFFFF"/>
				<stop  offset="0.1814" style="stop-color:#CDCDCD"/>
				<stop  offset="0.3712" style="stop-color:#9F9F9F"/>
				<stop  offset="0.5536" style="stop-color:#7C7C7C"/>
				<stop  offset="0.7239" style="stop-color:#626262"/>
				<stop  offset="0.8776" style="stop-color:#525252"/>
				<stop  offset="1" style="stop-color:#4D4D4D"/>
			</linearGradient>
			<path class="st20" d="M40.3,23v-0.2c-1.6,0-3,1.3-3,3v5.7l0,0l0.2-0.1l0,0v-5.6C37.5,24.2,38.8,23,40.3,23z"/>
			<g>
				<polygon class="st21" points="40.3,36.3 37.4,38.1 37.4,38.1 37.5,38.2 37.5,38.2 40.3,36.6 				"/>
			</g>
			<path class="st9" d="M40.3,3.5C40.3,3.5,40.3,3.5,40.3,3.5L40.3,3.5l0-0.2c-0.1,0-0.2,0.1-0.2,0.1l-3.4,11.2l0.2-0.1L40.3,3.5z"
				/>
			
				<linearGradient id="SVGID_11_" gradientUnits="userSpaceOnUse" x1="27.947" y1="-256.3655" x2="27.947" y2="-242.4374" gradientTransform="matrix(1 0 0 1 8.5 271.2754)">
				<stop  offset="0" style="stop-color:#BDBFC1"/>
				<stop  offset="0.1082" style="stop-color:#C4C6C7"/>
				<stop  offset="0.2812" style="stop-color:#D9D9DA"/>
				<stop  offset="0.4831" style="stop-color:#FFFFFF"/>
				<stop  offset="1" style="stop-color:#E8E7E8"/>
			</linearGradient>
			<path class="st22" d="M34.6,29.8v-4.1c0-1.9,0.9-3.6,2.3-4.6l0,0c1-0.8,1.7-2,1.7-3.3c0-1.3-0.6-2.5-1.6-3.3l-0.2,0.1
				c1,0.7,1.6,1.9,1.6,3.2c0,1.3-0.6,2.5-1.6,3.2l0,0c-1.5,1.1-2.4,2.8-2.4,4.8v3.7L34.6,29.8z"/>
			<polygon class="st23" points="18.4,23.9 34.4,33.1 34.4,33.1 34.6,33 34.6,33 18.6,23.8 			"/>
			<polygon class="st24" points="34.4,36.3 34.6,36.4 34.6,36.4 34.6,33 34.4,33.1 			"/>
			<polygon class="st9" points="18.6,23.8 20,21.4 19.9,21.1 18.4,23.9 			"/>
			<polygon class="st19" points="34.4,29.5 19.9,21.1 20,21.4 34.6,29.8 			"/>
			<polygon class="st24" points="40.3,33.1 40.3,32.9 43.1,31.3 43.3,31.4 			"/>
			
				<linearGradient id="SVGID_12_" gradientUnits="userSpaceOnUse" x1="34.7601" y1="-244.1919" x2="28.8327" y2="-244.1919" gradientTransform="matrix(1 0 0 1 8.5 271.2754)">
				<stop  offset="0" style="stop-color:#F2F2F2"/>
				<stop  offset="5.520000e-02" style="stop-color:#E6E6E6"/>
				<stop  offset="0.2745" style="stop-color:#B8B8B8"/>
				<stop  offset="0.4849" style="stop-color:#959595"/>
				<stop  offset="0.6814" style="stop-color:#7B7B7B"/>
				<stop  offset="0.8587" style="stop-color:#6B6B6B"/>
				<stop  offset="1" style="stop-color:#666666"/>
			</linearGradient>
			<path class="st25" d="M40.3,23v-0.2c1.6,0,3,1.3,3,3v5.7l0,0l-0.2-0.1l0,0v-5.6C43.1,24.2,41.9,23,40.3,23z"/>
			<g>
				<polygon class="st23" points="40.3,36.3 43.3,38.1 43.3,38.1 43.1,38.2 43.1,38.2 40.3,36.6 				"/>
			</g>
			<path class="st24" d="M40.3,3.5C40.3,3.5,40.3,3.5,40.3,3.5L40.3,3.5l0-0.2c0.1,0,0.2,0.1,0.2,0.1l3.4,11.2l-0.2-0.1L40.3,3.5z"
				/>
			
				<linearGradient id="SVGID_13_" gradientUnits="userSpaceOnUse" x1="35.702" y1="-256.7484" x2="35.702" y2="-240.6591" gradientTransform="matrix(1 0 0 1 8.5 271.2754)">
				<stop  offset="0" style="stop-color:#4D4D4D"/>
				<stop  offset="6.840000e-02" style="stop-color:#525252"/>
				<stop  offset="0.1513" style="stop-color:#616161"/>
				<stop  offset="0.2419" style="stop-color:#7A7A7A"/>
				<stop  offset="0.3378" style="stop-color:#9C9C9C"/>
				<stop  offset="0.438" style="stop-color:#C8C8C8"/>
				<stop  offset="0.5404" style="stop-color:#FDFDFD"/>
				<stop  offset="0.544" style="stop-color:#FFFFFF"/>
				<stop  offset="0.6294" style="stop-color:#CACACA"/>
				<stop  offset="0.7148" style="stop-color:#9E9E9E"/>
				<stop  offset="0.7968" style="stop-color:#7B7B7B"/>
				<stop  offset="0.8737" style="stop-color:#616161"/>
				<stop  offset="0.9435" style="stop-color:#525252"/>
				<stop  offset="1" style="stop-color:#4D4D4D"/>
			</linearGradient>
			<path class="st26" d="M46.1,29.8v-4.1c0-1.9-0.9-3.6-2.3-4.6l0,0c-1-0.8-1.7-2-1.7-3.3c0-1.3,0.6-2.5,1.6-3.3l0.2,0.1
				c-1,0.7-1.6,1.9-1.6,3.2c0,1.3,0.6,2.5,1.6,3.2l0,0c1.5,1.1,2.4,2.8,2.4,4.8v3.7L46.1,29.8z"/>
			<polygon class="st21" points="62.3,23.9 46.3,33.1 46.3,33.1 46.1,33 46.1,33 62,23.8 			"/>
			<polygon class="st27" points="46.3,36.3 46.1,36.4 46.1,36.4 46.1,33 46.3,33.1 			"/>
			<polygon class="st28" points="62,23.8 60.6,21.4 60.7,21.1 62.3,23.9 			"/>
			<polygon class="st24" points="46.3,29.5 60.7,21.1 60.6,21.4 46.1,29.8 			"/>
			<polygon class="st24" points="34.6,43.1 34.4,43.2 34.4,46.4 34.6,46.5 			"/>
			
				<linearGradient id="SVGID_14_" gradientUnits="userSpaceOnUse" x1="21.4124" y1="-224.1702" x2="20.8989" y2="-225.1042" gradientTransform="matrix(1 0 0 1 8.5 271.2754)">
				<stop  offset="0" style="stop-color:#FFFFFF"/>
				<stop  offset="1" style="stop-color:#666666"/>
			</linearGradient>
			<path class="st29" d="M25.8,48.2l-0.2,0.1c0.8,1.4,2.6,1.9,4.1,1.1l4.9-2.8l0,0l-0.2-0.1l0,0l-4.8,2.8
				C28.2,50,26.5,49.5,25.8,48.2z"/>
			<g>
				<polygon class="st19" points="37.4,41.5 40.3,43.2 40.3,43.2 40.3,43 40.3,43 37.5,41.4 				"/>
			</g>
			
				<linearGradient id="SVGID_15_" gradientUnits="userSpaceOnUse" x1="3.8925" y1="-216.7318" x2="4.1289" y2="-216.4867" gradientTransform="matrix(1 0 0 1 8.5 271.2754)">
				<stop  offset="0" style="stop-color:#FFFFFF"/>
				<stop  offset="7.750000e-02" style="stop-color:#E5E5E5"/>
				<stop  offset="0.2532" style="stop-color:#AFAFAF"/>
				<stop  offset="0.425" style="stop-color:#838383"/>
				<stop  offset="0.5892" style="stop-color:#606060"/>
				<stop  offset="0.7437" style="stop-color:#474747"/>
				<stop  offset="0.8847" style="stop-color:#383838"/>
				<stop  offset="1" style="stop-color:#333333"/>
			</linearGradient>
			<path class="st30" d="M8.9,57.9C8.9,57.9,8.9,57.9,8.9,57.9C8.9,57.9,8.9,57.9,8.9,57.9L8.7,58c0,0.1,0.1,0.1,0.2,0.1l11.4-2.6
				l-0.2-0.2L8.9,57.9z"/>
			
				<linearGradient id="SVGID_16_" gradientUnits="userSpaceOnUse" x1="25.5776" y1="-222.5613" x2="12.7659" y2="-216.6491" gradientTransform="matrix(1 0 0 1 8.5 271.2754)">
				<stop  offset="0" style="stop-color:#1A1A1A"/>
				<stop  offset="0.1169" style="stop-color:#1D1D1D"/>
				<stop  offset="0.225" style="stop-color:#282828"/>
				<stop  offset="0.3296" style="stop-color:#3B3B3B"/>
				<stop  offset="0.4321" style="stop-color:#555555"/>
				<stop  offset="0.5321" style="stop-color:#777777"/>
				<stop  offset="0.6264" style="stop-color:#9E9E9E"/>
				<stop  offset="0.6326" style="stop-color:#9B9B9B"/>
				<stop  offset="0.757" style="stop-color:#646464"/>
				<stop  offset="0.8641" style="stop-color:#3B3B3B"/>
				<stop  offset="0.9486" style="stop-color:#232323"/>
				<stop  offset="1" style="stop-color:#1A1A1A"/>
			</linearGradient>
			<path class="st31" d="M34.6,49.8l-3.5,2c-1.6,0.9-3.5,1-5.2,0.3l0,0c-1.2-0.5-2.5-0.5-3.7,0.2c-1.1,0.7-1.9,1.8-2,3l0.2,0.2
				c0.1-1.2,0.8-2.3,2-3c1.1-0.6,2.4-0.7,3.5-0.2l0,0c1.7,0.7,3.6,0.7,5.3-0.3l3.2-1.9L34.6,49.8z"/>
			<polygon class="st27" points="37.5,66.7 37.5,48.2 37.5,48.2 37.4,48.1 37.4,48.1 37.4,66.5 			"/>
			<polygon class="st21" points="40.3,46.6 40.3,46.4 40.3,46.4 37.4,48.1 37.5,48.2 			"/>
			<polygon class="st32" points="37.4,66.5 34.6,66.5 34.4,66.7 37.5,66.7 			"/>
			<polygon class="st24" points="34.4,50.1 34.4,66.7 34.6,66.5 34.6,49.8 			"/>
			<polygon class="st23" points="34.6,43.1 34.4,43.2 31.6,41.6 31.6,41.4 			"/>
			
				<linearGradient id="SVGID_17_" gradientUnits="userSpaceOnUse" x1="20.794" y1="-224.8159" x2="19.8137" y2="-227.0566" gradientTransform="matrix(1 0 0 1 8.5 271.2754)">
				<stop  offset="0" style="stop-color:#666666"/>
				<stop  offset="1" style="stop-color:#333333"/>
			</linearGradient>
			<path class="st33" d="M25.8,48.2l-0.2,0.1c-0.8-1.4-0.3-3.2,1.1-4.1l4.9-2.8l0,0l0,0.2l0,0l-4.8,2.8C25.4,45.2,25,46.9,25.8,48.2
				z"/>
			<g>
				<polygon class="st27" points="37.4,41.5 37.4,38.1 37.4,38.1 37.5,38.2 37.5,38.2 37.5,41.4 				"/>
			</g>
			<path class="st9" d="M8.9,57.9C8.9,57.9,8.9,57.9,8.9,57.9C8.9,57.9,8.9,57.9,8.9,57.9L8.7,58c0-0.1,0-0.2,0-0.2l8-8.5l0.1,0.2
				L8.9,57.9z"/>
			
				<linearGradient id="SVGID_18_" gradientUnits="userSpaceOnUse" x1="21.0089" y1="-229.4802" x2="7.8503" y2="-222.5275" gradientTransform="matrix(1 0 0 1 8.5 271.2754)">
				<stop  offset="0" style="stop-color:#E0E0E0"/>
				<stop  offset="0.1524" style="stop-color:#D6D6D6"/>
				<stop  offset="0.4099" style="stop-color:#BCBCBC"/>
				<stop  offset="0.5879" style="stop-color:#A6A6A6"/>
				<stop  offset="0.6248" style="stop-color:#BFBFBF"/>
				<stop  offset="0.6759" style="stop-color:#DBDBDB"/>
				<stop  offset="0.7273" style="stop-color:#EFEFEF"/>
				<stop  offset="0.7785" style="stop-color:#FBFBFB"/>
				<stop  offset="0.8297" style="stop-color:#FFFFFF"/>
				<stop  offset="1" style="stop-color:#ADADAD"/>
			</linearGradient>
			<path class="st34" d="M28.8,39.8l-3.5,2c-1.6,0.9-2.6,2.6-2.8,4.3h0c-0.2,1.3-0.9,2.4-2,3.1c-1.1,0.7-2.5,0.7-3.6,0.3l-0.1-0.2
				c1.1,0.5,2.4,0.4,3.6-0.2c1.1-0.6,1.8-1.8,2-3l0,0c0.2-1.8,1.2-3.5,2.9-4.5l3.2-1.9L28.8,39.8L28.8,39.8z"/>
			<polygon class="st19" points="15.6,28.7 31.6,37.9 31.6,37.9 31.6,38.2 31.6,38.2 15.7,29 			"/>
			<polygon class="st24" points="34.4,36.3 34.6,36.4 34.6,36.4 31.6,38.2 31.6,37.9 			"/>
			<polygon class="st9" points="15.7,29 14.3,31.4 14,31.4 15.6,28.7 			"/>
			<polygon class="st23" points="28.4,39.8 14,31.4 14.3,31.4 28.8,39.8 			"/>
			<polygon class="st21" points="46.1,43.1 46.3,43.2 49,41.6 49,41.4 			"/>
			
				<linearGradient id="SVGID_19_" gradientUnits="userSpaceOnUse" x1="47.3896" y1="-224.1089" x2="45.0557" y2="-225.6491" gradientTransform="matrix(1 0 0 1 8.5 271.2754)">
				<stop  offset="0" style="stop-color:#FFFFFF"/>
				<stop  offset="3.200000e-03" style="stop-color:#FEFEFE"/>
				<stop  offset="0.2537" style="stop-color:#C8C8C8"/>
				<stop  offset="0.4871" style="stop-color:#9E9E9E"/>
				<stop  offset="0.6966" style="stop-color:#7F7F7F"/>
				<stop  offset="0.8746" style="stop-color:#6D6D6D"/>
				<stop  offset="1" style="stop-color:#666666"/>
			</linearGradient>
			<path class="st35" d="M54.9,48.2l0.2,0.1c0.8-1.4,0.3-3.2-1.1-4.1L49,41.4l0,0v0.2l0,0l4.8,2.8C55.2,45.2,55.7,46.9,54.9,48.2z"
				/>
			<g>
				<polygon class="st24" points="43.3,41.5 43.3,38.1 43.3,38.1 43.1,38.2 43.1,38.2 43.1,41.4 				"/>
			</g>
			<path class="st36" d="M71.8,57.9C71.8,57.9,71.8,57.9,71.8,57.9L71.8,57.9l0.2,0.1c0-0.1,0-0.2,0-0.2l-8-8.5l0,0.2L71.8,57.9z"/>
			
				<linearGradient id="SVGID_20_" gradientUnits="userSpaceOnUse" x1="43.353" y1="-226.5004" x2="55.42" y2="-226.5004" gradientTransform="matrix(1 0 0 1 8.5 271.2754)">
				<stop  offset="0" style="stop-color:#E0E0E0"/>
				<stop  offset="0.1524" style="stop-color:#D6D6D6"/>
				<stop  offset="0.4099" style="stop-color:#BCBCBC"/>
				<stop  offset="0.5879" style="stop-color:#A6A6A6"/>
				<stop  offset="0.6508" style="stop-color:#BFBFBF"/>
				<stop  offset="0.7379" style="stop-color:#DBDBDB"/>
				<stop  offset="0.8255" style="stop-color:#EFEFEF"/>
				<stop  offset="0.9129" style="stop-color:#FBFBFB"/>
				<stop  offset="1" style="stop-color:#FFFFFF"/>
			</linearGradient>
			<path class="st37" d="M51.9,39.8l3.5,2c1.6,0.9,2.6,2.6,2.8,4.3l0,0c0.2,1.3,0.9,2.4,2.1,3.1c1.1,0.7,2.5,0.7,3.6,0.3l0-0.2
				c-1.1,0.5-2.4,0.4-3.6-0.2c-1.1-0.6-1.8-1.8-2-3l0,0c-0.2-1.8-1.2-3.5-2.9-4.4l-3.2-1.9H51.9z"/>
			<polygon class="st24" points="65.1,28.7 49.1,37.9 49.1,37.9 49.1,38.2 49.1,38.2 65,29 			"/>
			<polygon class="st19" points="46.3,36.3 46.1,36.4 49.1,38.2 49.1,37.9 			"/>
			<polygon class="st28" points="65,29 66.4,31.4 66.7,31.5 65.1,28.7 			"/>
			<polygon class="st21" points="52.2,39.8 66.7,31.5 66.4,31.4 51.9,39.8 			"/>
			<polygon class="st27" points="46.1,43.1 46.3,43.2 46.3,46.4 46.1,46.5 			"/>
			
				<linearGradient id="SVGID_21_" gradientUnits="userSpaceOnUse" x1="45.6674" y1="-221.4997" x2="43.3334" y2="-223.0399" gradientTransform="matrix(1 0 0 1 8.5 271.2754)">
				<stop  offset="0" style="stop-color:#FFFFFF"/>
				<stop  offset="0.1244" style="stop-color:#F8F8F8"/>
				<stop  offset="0.3053" style="stop-color:#E5E5E5"/>
				<stop  offset="0.5206" style="stop-color:#C5C5C5"/>
				<stop  offset="0.7604" style="stop-color:#999999"/>
				<stop  offset="1" style="stop-color:#666666"/>
			</linearGradient>
			<path class="st38" d="M54.9,48.2l0.2,0.1c-0.8,1.4-2.6,1.9-4.1,1.1l-4.9-2.8l0,0l0.2-0.1l0,0l4.8,2.8
				C52.4,50,54.1,49.5,54.9,48.2z"/>
			<g>
				<polygon class="st9" points="43.3,41.5 40.3,43.2 40.3,43.2 40.3,43 40.3,43 43.1,41.4 				"/>
			</g>
			
				<linearGradient id="SVGID_22_" gradientUnits="userSpaceOnUse" x1="61.8242" y1="-216.4882" x2="61.5442" y2="-216.3583" gradientTransform="matrix(1 0 0 1 8.5 271.2754)">
				<stop  offset="0" style="stop-color:#CCCCCC"/>
				<stop  offset="0.1185" style="stop-color:#B9B9B9"/>
				<stop  offset="0.321" style="stop-color:#A0A0A0"/>
				<stop  offset="0.5311" style="stop-color:#8E8E8E"/>
				<stop  offset="0.7517" style="stop-color:#838383"/>
				<stop  offset="1" style="stop-color:#808080"/>
			</linearGradient>
			<path class="st39" d="M71.8,57.9C71.8,57.9,71.8,57.9,71.8,57.9L71.8,57.9l0.2,0.1c0,0.1-0.1,0.1-0.2,0.1l-11.4-2.6l0.2-0.2
				L71.8,57.9z"/>
			
				<linearGradient id="SVGID_23_" gradientUnits="userSpaceOnUse" x1="37.591" y1="-218.6579" x2="52.006" y2="-218.6579" gradientTransform="matrix(1 0 0 1 8.5 271.2754)">
				<stop  offset="0" style="stop-color:#999999"/>
				<stop  offset="8.810000e-02" style="stop-color:#949494"/>
				<stop  offset="0.1892" style="stop-color:#868686"/>
				<stop  offset="0.2967" style="stop-color:#6F6F6F"/>
				<stop  offset="0.4088" style="stop-color:#4F4F4F"/>
				<stop  offset="0.5232" style="stop-color:#262626"/>
				<stop  offset="0.5549" style="stop-color:#1A1A1A"/>
				<stop  offset="0.599" style="stop-color:#202020"/>
				<stop  offset="0.6587" style="stop-color:#313131"/>
				<stop  offset="0.7275" style="stop-color:#4E4E4E"/>
				<stop  offset="0.8031" style="stop-color:#767676"/>
				<stop  offset="0.8842" style="stop-color:#A9A9A9"/>
				<stop  offset="0.9686" style="stop-color:#E6E6E6"/>
				<stop  offset="1" style="stop-color:#FFFFFF"/>
			</linearGradient>
			<path class="st40" d="M46.1,49.8l3.5,2c1.6,0.9,3.5,1,5.2,0.3l0,0c1.2-0.5,2.5-0.4,3.7,0.2c1.1,0.7,1.9,1.8,2,3l-0.2,0.2
				c-0.1-1.2-0.8-2.3-2-3c-1.1-0.6-2.4-0.7-3.5-0.2l0,0c-1.7,0.7-3.6,0.7-5.3-0.3l-3.2-1.9L46.1,49.8z"/>
			<polygon class="st24" points="43.1,66.7 43.1,48.2 43.1,48.2 43.3,48.1 43.3,48.1 43.3,66.5 			"/>
			<polygon class="st23" points="40.3,46.6 40.3,46.4 40.3,46.4 43.3,48.1 43.1,48.2 			"/>
			<polygon class="st32" points="43.3,66.5 46.1,66.5 46.3,66.7 43.1,66.7 			"/>
			<polygon class="st27" points="46.3,50.1 46.3,66.7 46.1,66.5 46.1,49.8 			"/>
			
				<linearGradient id="SVGID_24_" gradientUnits="userSpaceOnUse" x1="34.1986" y1="-266.0874" x2="29.3568" y2="-266.0874" gradientTransform="matrix(1 0 0 1 8.5 271.2754)">
				<stop  offset="0" style="stop-color:#CCCCCC"/>
				<stop  offset="1" style="stop-color:#3D3D3D"/>
			</linearGradient>
			<path class="st41" d="M41.1,2.9l1.6,5.2l0.1-0.2l-1.6-5.1l0,0c-0.2-0.4-0.5-0.6-0.9-0.6v0.2C40.6,2.5,40.9,2.6,41.1,2.9z"/>
			
				<linearGradient id="SVGID_25_" gradientUnits="userSpaceOnUse" x1="69.1146" y1="-224.2011" x2="24.1744" y2="-269.1414" gradientTransform="matrix(1 0 0 1 8.5 271.2754)">
				<stop  offset="0" style="stop-color:#FFFFFF"/>
				<stop  offset="1" style="stop-color:#231A16"/>
			</linearGradient>
			<path class="st42" d="M72.3,39.8c0-16.8-13-30.6-29.4-31.8l-0.1,0.2C59.1,9.3,72.1,23,72.1,39.8c0,4.9-1.1,9.6-3.1,13.8l0.2,0
				C71.1,49.4,72.3,44.7,72.3,39.8z"/>
			
				<linearGradient id="SVGID_26_" gradientUnits="userSpaceOnUse" x1="61.1353" y1="-212.6611" x2="62.2402" y2="-214.9556" gradientTransform="matrix(1 0 0 1 8.5 271.2754)">
				<stop  offset="0" style="stop-color:#FFFFFF"/>
				<stop  offset="0.1419" style="stop-color:#FAFAFA"/>
				<stop  offset="0.3069" style="stop-color:#ECECEC"/>
				<stop  offset="0.4834" style="stop-color:#D5D5D5"/>
				<stop  offset="0.668" style="stop-color:#B4B4B4"/>
				<stop  offset="0.857" style="stop-color:#8B8B8B"/>
				<stop  offset="1" style="stop-color:#666666"/>
			</linearGradient>
			<path class="st43" d="M72.7,57.4l-3.6-3.9l-0.2,0l3.7,4c0.2,0.2,0.2,0.6,0.1,0.9l0.2,0.1c0.1-0.2,0.1-0.3,0.1-0.5
				C72.9,57.8,72.9,57.6,72.7,57.4z"/>
			
				<linearGradient id="SVGID_27_" gradientUnits="userSpaceOnUse" x1="60.9729" y1="-212.7389" x2="62.0772" y2="-215.0323" gradientTransform="matrix(1 0 0 1 8.5 271.2754)">
				<stop  offset="0" style="stop-color:#FFFFFF"/>
				<stop  offset="0.1419" style="stop-color:#FAFAFA"/>
				<stop  offset="0.3069" style="stop-color:#ECECEC"/>
				<stop  offset="0.4834" style="stop-color:#D5D5D5"/>
				<stop  offset="0.668" style="stop-color:#B4B4B4"/>
				<stop  offset="0.857" style="stop-color:#8B8B8B"/>
				<stop  offset="1" style="stop-color:#666666"/>
			</linearGradient>
			<path class="st44" d="M72.6,58.4c-0.2,0.3-0.5,0.4-0.8,0.4l-5.3-1.2l0.1,0.2l5.2,1.1c0,0,0.1,0,0.2,0c0.3,0,0.7-0.2,0.9-0.5
				L72.6,58.4z"/>
			
				<linearGradient id="SVGID_28_" gradientUnits="userSpaceOnUse" x1="44.9156" y1="-200.0035" x2="-2.451421e-02" y2="-244.9436" gradientTransform="matrix(1 0 0 1 8.5 271.2754)">
				<stop  offset="0" style="stop-color:#FFFFFF"/>
				<stop  offset="1" style="stop-color:#231A16"/>
			</linearGradient>
			<path class="st45" d="M66.6,57.7C60.8,66,51.2,71.5,40.3,71.5c-10.9,0-20.5-5.5-26.2-13.9L14,57.9c5.8,8.4,15.4,13.8,26.3,13.8
				c10.9,0,20.6-5.5,26.3-13.8L66.6,57.7z"/>
			
				<linearGradient id="SVGID_29_" gradientUnits="userSpaceOnUse" x1="2.7751" y1="-212.5156" x2="1.4175" y2="-215.4007" gradientTransform="matrix(1 0 0 1 8.5 271.2754)">
				<stop  offset="0" style="stop-color:#F2F2F2"/>
				<stop  offset="1" style="stop-color:#1A1A1A"/>
			</linearGradient>
			<path class="st46" d="M8.7,59c0,0,0.1,0,0.1,0l0,0l5.2-1.1l0.1-0.2l-5.3,1.2c-0.3,0-0.6-0.1-0.8-0.4l-0.2,0.1
				C8,58.8,8.3,59,8.7,59z"/>
			
				<linearGradient id="SVGID_30_" gradientUnits="userSpaceOnUse" x1="2.5919" y1="-212.4286" x2="1.2319" y2="-215.3186" gradientTransform="matrix(1 0 0 1 8.5 271.2754)">
				<stop  offset="0" style="stop-color:#F2F2F2"/>
				<stop  offset="1" style="stop-color:#1A1A1A"/>
			</linearGradient>
			<path class="st47" d="M7.9,57.4c-0.1,0.2-0.2,0.4-0.2,0.6c0,0.2,0,0.3,0.1,0.5L8,58.4c-0.2-0.3-0.1-0.6,0-0.9l3.7-4l-0.2,0
				L7.9,57.4z"/>
			<g>
				
					<linearGradient id="SVGID_31_" gradientUnits="userSpaceOnUse" x1="50.8052" y1="-205.8911" x2="5.8645" y2="-250.8319" gradientTransform="matrix(1 0 0 1 8.5 271.2754)">
					<stop  offset="0" style="stop-color:#FFFFFF"/>
					<stop  offset="1" style="stop-color:#231A16"/>
				</linearGradient>
				<path class="st48" d="M8.4,39.8c0,4.9,1.1,9.6,3.1,13.8l0.2,0c-2-4.2-3.1-8.8-3.1-13.8C8.6,23,21.5,9.3,38,8.1l-0.1-0.2
					C21.3,9.2,8.4,23,8.4,39.8z"/>
				
					<linearGradient id="SVGID_32_" gradientUnits="userSpaceOnUse" x1="34.1986" y1="-266.0879" x2="29.357" y2="-266.0879" gradientTransform="matrix(1 0 0 1 8.5 271.2754)">
					<stop  offset="0" style="stop-color:#CCCCCC"/>
					<stop  offset="1" style="stop-color:#3D3D3D"/>
				</linearGradient>
				<path class="st49" d="M39.4,2.9l-1.6,5.1L38,8.1l1.6-5.2c0.1-0.3,0.4-0.5,0.7-0.5V2.3C39.9,2.3,39.6,2.5,39.4,2.9z"/>
			</g>
		</g>
	</g>
</g>
<rect id="_x3C_Slice_x3E_" class="st50" width="375" height="80"/>
<path class="st51" d="M352.1,109.5c-1.2,0.5-2.2,0.9-3.2,1c-0.8,0.1-1.5,0.5-2.3,0.8c-1.3,0.4-2.8,0.4-4.2,0.6
	c-5.8,0.7-11.5,1.3-17.3,1.9c-5.5,0.6-11,1.2-16.5,1.8c-6.3,0.7-12.6,1.4-18.9,2.1c-5.4,0.6-10.9,1.2-16.3,1.8
	c-5.4,0.6-10.9,1.2-16.3,1.8c-5.4,0.6-10.8,1.2-16.2,1.8c-6.2,0.7-12.3,1.4-18.5,2.1c-5.3,0.6-10.6,1.2-15.9,1.8
	c-5.2,0.6-10.4,1.2-15.6,1.8c-4.2,0.5-8.4,1-12.6,1.5c-1.5,0.2-3,0.4-4.8,0.6c2.2-3.7,4.5-7,7.1-10.5c-1.6,0.1-3,0.2-4.4,0.4
	c-7.1,0.8-14.2,1.6-21.3,2.4c-6.6,0.8-13.2,1.6-19.8,2.3c-7.6,0.8-15.2,1.7-22.9,2.3c-1.7,0.1-3.4,0.3-5,0.4
	c-2.6,0.2-5.2,0.1-7.8-0.3c-1.5-0.2-2.9-1-4.2-1.7c-2.8-1.6-5.5-3.3-8.3-5c-3-1.8-5.9-3.7-9-5.4c-1,1.4-1.7,2.9-2.5,4.3
	c-1.8,3.2-3.7,6.3-5.4,9.5c-0.6,1.1-1.6,1.8-2.6,2c-2.9,0.7-5.9,1.3-8.9,1.3c-0.1,0-0.2,0-0.5-0.1c2.2-3.6,4.7-7,7-10.5
	c2.3-3.5,4.7-7,7-10.5c2.3-3.5,4.6-7,7-10.6c-0.4-0.2-0.8,0-1.3,0c-4.6,0.7-9.1,1.6-13.6,2.4c-2,0.4-4.1,0-5.9-1.1
	c0.1-0.5,0.6-0.5,1-0.5c6.5-1.1,13-2.2,19.6-3.1c5.6-0.8,11.2-1.4,16.9-1.7c3.6-0.2,7.3-0.3,10.9,0.4c1.5,0.3,2.9,0.7,4.2,1.4
	c0.3,0.1,0.7,0.3,1,0.5c1.9,1.4,2.7,3,1.1,5.5c-0.9,1.4-2,2.4-3.3,3.4c-3.1,2.2-6.5,3.7-10,4.9c-2.3,0.8-4.7,1.5-7.1,2
	c-0.3,0-0.5,0.1-0.7,0.4c2.8,1.8,5.4,3.8,8.3,5.3c3.4,1.8,7.1,3,11,3.6c3.7,0.6,7.4,0.5,11.2,0.1c4.3-0.4,8.6-0.8,12.9-1.2
	c5-0.5,10-1,15-1.5c4.8-0.5,9.5-1,14.3-1.5c4.8-0.5,9.6-1,14.4-1.5c0.2,0,0.4,0,0.5-0.1c2.8-0.2,2.1,0,3.7-2.1
	c0.4-0.5,0.3-0.9,0.1-1.3c-1.2-2.5-1.9-5.2-2.7-7.8c-0.4-1.2-0.7-2.5-1.1-3.7c-0.6-2-0.4-2.3,1.6-2.5c2.6-0.2,2.6-0.2,3.2,2.3
	c0.5,2.3,1.4,4.6,2.1,6.8c0.1,0.3,0.1,0.7,0.5,0.7c0.3,0,0.4-0.3,0.5-0.5c2.1-3.1,4.3-6.1,6.4-9.2c0.3-0.5,0.9-0.9,1.5-1
	c0.8-0.2,1.5-0.4,2.3-0.5c1.1-0.1,2.2-0.4,3.6-0.3c-7.2,8.3-12.7,17.6-18.5,27.2c1-0.1,1.8-0.1,2.5-0.1c6.5-0.6,13.1-1.2,19.6-1.8
	c5.2-0.5,10.4-1,15.5-1.5c5.9-0.6,11.9-1.2,17.8-1.8c4.9-0.5,9.7-1,14.6-1.5c4.9-0.5,9.9-1,14.8-1.5c4.7-0.5,9.4-1,14.2-1.5
	c5.8-0.6,11.6-1.2,17.4-1.8c4.7-0.5,9.3-1,14-1.5c5.7-0.6,11.3-1.2,17-1.8c4.7-0.5,9.3-1,14-1.5c2.1-0.2,4.3-0.5,6.4-0.7
	C350.9,109.5,351.4,109.4,352.1,109.5z M78.1,115.2c6.3-1.4,12.2-2.8,17.8-5.5c1.8-0.8,3.5-1.8,5.1-2.9c0.9-0.6,1.8-1.3,2.4-2.2
	c1.3-1.7,1-3-0.9-3.9c-0.5-0.2-1-0.4-1.5-0.6c-1.2-0.3-2.4-0.5-3.6-0.6c-3.1-0.1-6.3,0-9.4,0.2c-0.8,0.1-1.3,0.3-1.7,1.1
	c-2.5,4.5-5.1,9-7.7,13.6C78.4,114.6,78.3,114.8,78.1,115.2z"/>
<path class="st51" d="M255.6,115.7c0.1-1.2,0.6-2.1,1.1-3.1c1.2-2.2,2.1-4.5,3.2-6.7c1.2-2.5,2.4-4.9,3.7-7.4c0.5-1,0.5-1-0.4-1.6
	c-0.1-0.1-0.2-0.2-0.3-0.4c2-0.8,4.1-1.1,6.4-1.2c-0.4,1.6-1.2,2.9-1.8,4.3c-0.6,1.4-1.2,2.7-1.8,4.2c0.8,0.2,1.5-0.1,2.1-0.1
	c1.9-0.2,3.8-0.4,5.7-0.6c0.5-0.1,0.8-0.3,1-0.8c1-2.4,2.2-4.6,3.5-6.9c0.1-0.3,0.4-0.5,0.7-0.6c1.4-0.5,2.8-0.8,4.4-0.6
	c-0.8,1.5-1.5,2.8-2.2,4.2c-2.4,4.7-4.5,9.6-6.5,14.5c-0.3,0.8-0.7,1.2-1.6,1.2c-1.1,0.1-2.3,0.2-3.6,0.3c1.3-3.1,2.6-6.1,3.9-9
	c-0.5-0.4-0.9-0.1-1.3-0.1c-2.1,0.3-4.1,0.6-6.2,0.9c-0.8,0.1-1.3,0.5-1.6,1.2c-0.9,2.3-2,4.5-2.9,6.8c-0.4,0.9-0.9,1.2-1.8,1.2
	C258.2,115.5,256.9,115.8,255.6,115.7z"/>
<path class="st51" d="M131.9,114.1c-0.4,0.7-0.7,1.4-1,2.1c-0.3,0.6-0.7,1-1.2,1.4c-2.3,1.5-4.8,2.2-7.5,2.4
	c-1.8,0.2-3.6,0.1-5.4-0.2c-1.2-0.2-2.3-0.7-3.3-1.2c-0.5-0.3-0.9-0.7-1-1.3c-0.7-2.8,0.2-5.2,2.1-7.2c1.7-1.9,3.8-3.1,6.1-3.9
	c2.3-0.9,4.8-1.4,7.3-1.5c1.5,0,3,0.1,4.3,0.9c1.5,0.9,2,2.2,1.3,3.8c-0.6,1.5-1.7,2.3-3.3,2.6c-3.7,0.6-7.5,1.2-11.2,1.6
	c-0.5,0.1-0.7,0.2-0.9,0.7c-0.5,1.4,0.1,2.6,1.5,2.9c1.3,0.3,2.5,0.1,3.8-0.1c2.5-0.4,4.8-1.4,7-2.4
	C130.8,114.3,131.2,114,131.9,114.1z M119.5,111c0,0.1,0.1,0.2,0.1,0.3c2.1-0.3,4.1-0.6,6.2-0.8c1.4-0.1,2.1-1,2.5-2.2
	c0.4-1.2-0.1-1.8-1.3-1.6C124,107.2,121.6,108.8,119.5,111z"/>
<path class="st51" d="M209,106c1,0,2.1,0.1,3.3,0.4c2.5,0.6,3.5,3,2.8,4.8c-1.3,3.3-3.1,6-6.4,7.6c-3.2,1.6-6.6,2.3-10.2,2
	c-0.9-0.1-1.8-0.2-2.6-0.6c-1.7-0.8-2.4-2.3-2-4.2c0.3-1.4,1.1-2.6,1.9-3.7C199.1,107.9,203.7,106,209,106z M199.7,116.4
	c-0.1,1.9,0.8,2.7,2.6,2.4c1.4-0.2,2.6-0.9,3.5-1.9c1.4-1.4,2.4-3.2,3.2-5c0.2-0.5,0.4-1.1,0.3-1.7c-0.1-1.1-0.7-1.8-1.8-1.8
	c-0.4,0-0.8,0.1-1.2,0.2c-3.5,1.2-5.5,3.8-6.6,7.2C199.7,116,199.7,116.2,199.7,116.4z"/>
<path class="st51" d="M226.7,104.7c-0.7,1.3-1.4,2.4-2,3.6c-0.8,1.7-1.8,3.2-2.4,5c-0.1,0.4-0.3,0.8-0.3,1.2
	c-0.2,1.1,0.1,1.4,1.2,1.5c2,0.2,3.4-0.6,4.6-2.1c1.6-2.1,2.9-4.5,4.1-6.9c0.8-1.7,2-2.8,4-2.9c0.8-0.1,1.5-0.2,2.3-0.2
	c0.4,0,0.6,0.4,0.4,0.8c-1.6,2.1-2.8,4.4-3.9,6.8c-2,4-5.2,5.9-9.4,6.8c-1.5,0.3-3,0.4-4.5,0.3c-0.4,0-0.7,0-1.1-0.1
	c-2.8-0.4-3.7-1.9-2.8-4.6c0.8-2.2,1.9-4.2,3.1-6.1c0.8-1.3,1.9-2.3,3.6-2.5C224.6,105.1,225.6,104.7,226.7,104.7z"/>
<path class="st51" d="M142.8,113.4c0.6-0.3,0.7-0.9,1.1-1.3c2.3-2.7,4.6-5.4,7-8c1.4-1.5,3.2-1.8,5.2-1.8c0,0.6-0.4,1-0.7,1.3
	c-4.1,4.3-8,8.9-11.9,13.3c-0.6,0.7-1.2,1.1-2.2,1.1c-0.9,0-1.8,0.2-2.7,0.3c-0.6,0.1-0.9-0.1-1-0.7c-0.5-3.9-1.1-7.9-1.6-11.8
	c-0.1-0.7,0-1.1,0.8-1.3c1.3-0.3,2.6-0.6,3.9-0.8c0.6-0.1,0.8,0.2,0.8,0.7c0.3,2.5,0.7,5,1.1,7.6
	C142.6,112.4,142.6,112.9,142.8,113.4z"/>
<path class="st51" d="M293.8,107.5c-0.8,2.9-2.8,4.1-5.2,4.8c-2.1,0.7-4.3,0.9-6.5,0.4c-2.3-0.6-3.1-2-2.5-4.3
	c1-3.6,3.4-5.9,6.7-7.5c2-0.9,4.1-1.5,6.4-1.5c0.9,0,1.8,0.2,2.5,0.9c0.4,0.3,0.6,0.7,0.7,1.2c0.3,1.6-1,3.6-2.6,3.9
	c-2.7,0.5-5.4,1-8,1.6c-1.2,0.2-1.7,0.9-1.6,1.9c0.1,0.9,0.9,1.5,2,1.4c1.5-0.1,2.9-0.5,4.2-1C291.2,108.9,292.5,108.2,293.8,107.5z
	 M285.5,105.4c1.5-0.1,2.9-0.4,4.4-0.7c1.2-0.3,1.8-1.1,2.2-2.2c0.3-0.9,0-1.3-1-1.1C288.6,101.9,287,103.5,285.5,105.4z"/>
<path class="st51" d="M173.5,101.5c-0.7,1.6-0.9,1.7-2.4,1.8c-2.1,0.1-4.2,0.1-6.2,0.9c-0.6,0.2-1.1,0.6-1.7,0.8
	c-0.5,0.1-0.4,0.6,0.1,1c0.8,0.6,1.8,0.7,2.7,1.1c0.9,0.4,1.8,0.7,2.6,1.4c1.5,1.3,1.1,3.1-0.6,4.1c-5.8,3.3-12.1,3.4-18.6,3.2
	c-0.2,0-0.4,0-0.5-0.1c-0.1,0-0.1-0.1-0.3-0.2c0.4-0.4,0.8-0.8,1.2-1.3c0.4-0.4,0.8-0.3,1.3-0.3c2.6,0.1,5.3,0.1,7.9-0.3
	c1.3-0.2,2.6-0.5,3.7-1.1c1.2-0.6,1.3-1.4,0.2-2.2c-1.4-0.9-3.1-1.4-4.7-1.7c-0.8-0.2-1.2-0.7-1.7-1.2c-0.3-0.4-0.2-0.9,0.1-1.3
	c0.5-0.7,1-1.4,1.8-1.8c1.9-1,3.9-1.5,5.9-1.9C167.4,101.8,170.4,101.6,173.5,101.5z"/>
<path class="st51" d="M313.5,98.3c-0.5,1-1,1.9-1.5,2.8c-0.7,1.2-1.3,2.5-2,3.7c-0.2,0.4-0.4,0.8-0.6,1.2c-0.3,0.7-0.8,1.4-0.3,2
	c0.5,0.6,1.3,0.2,1.9,0.1c0.2,0,0.3-0.1,0.6-0.1c-0.2,0.9-0.7,1.4-1.5,1.6c-0.5,0.1-1,0.3-1.4,0.4c-2,0.4-2.8-0.2-3.4-2.1
	c-0.5,0-0.7,0.4-1,0.6c-0.9,0.7-1.9,1.3-2.9,1.8c-0.6,0.3-1.2,0.5-1.8,0.6c-2.4,0.3-3.6-1-3.1-3.3c0.5-2.3,1.7-4,3.5-5.6
	c1.5-1.3,3.1-2.2,4.8-2.8c1.7-0.6,3.6-0.8,5.5-0.9C311.3,98.4,312.4,98.2,313.5,98.3z M308.9,100.8c-0.8-0.2-1.5,0-2.1,0.2
	c-2.5,0.5-4.3,1.9-5.4,4.1c-0.3,0.5-0.4,1.1-0.4,1.7c0,0.5,0.3,0.9,0.9,0.8c0.3-0.1,0.6-0.1,0.9-0.2
	C305.8,106.1,307.4,103.6,308.9,100.8z"/>
<path class="st51" d="M256.1,102.5c-1.5,1.3-3.1,2.4-5.2,2.4c-0.9,0-1.8-0.1-2.6,0.4c-1.1,0.5-1.9,1.3-2.5,2.3
	c-1.5,2.4-2.8,4.9-4.1,7.5c-0.3,0.6-0.6,0.9-1.3,1c-1.4,0.1-2.9,0.4-4.3,0.6c-0.3-0.4,0-0.7,0.1-0.9c1-1.8,2.1-3.5,2.9-5.3
	c0.9-2.1,2.2-4,3.1-6.1c0.3-0.8,0.9-1.2,1.7-1.1c1,0,1.9-0.1,2.8,0.5c0.5,0.3,0.8,0.2,1.2,0C250.5,102.6,253.2,102,256.1,102.5z"/>
<path class="st51" d="M334.3,98.8c-1.4-0.2-2.7,0.3-4.1,0.2c1.1-1.7,2.6-2.5,4.4-2.7c0.5,0,0.9-0.2,1.2-0.6c0.8-1.1,2.2-1.3,3.3-1.8
	c0.5-0.3,1.2-0.3,1.9-0.5c0.1,0.9-0.7,1.4-0.7,2.3c2-0.1,3.9-0.3,5.9-0.4c-1.9,1.4-3.8,2.5-6.2,2.6c-0.7,0-1.1,0.3-1.4,1
	c-1.1,2.5-2.3,5-3.4,7.5c-0.3,0.8-0.8,1.2-1.7,1.2c-1.1,0-2.1,0.3-3.4,0.3C331.5,104.8,332.9,101.8,334.3,98.8z"/>
<path class="st51" d="M312.6,109.7c0.1-0.3,0.1-0.5,0.2-0.6c1.7-3.2,2.9-6.7,4.6-9.9c0.3-0.5,0.4-1.3,1.1-1.4
	c0.8-0.2,1.8-0.3,2.5,0.2c0.9,0.7,1.5,0.4,2.3,0c2.2-1.1,4.6-1.4,7.4-1.2c-1.4,1.2-2.6,2.2-4.2,2.5c-0.7,0.1-1.4,0.2-2,0.2
	c-1.3,0-2.4,0.6-3.2,1.5c-0.7,0.8-1.2,1.7-1.7,2.7c-0.7,1.5-1.4,3.1-2,4.6c-0.2,0.4-0.2,0.8-0.7,0.9
	C315.5,109.3,314.1,109.5,312.6,109.7z"/>
</svg>
